<mxfile host="app.diagrams.net" agent="Mozilla/5.0 (Macintosh; Intel Mac OS X 10_15_7) AppleWebKit/605.1.15 (KHTML, like Gecko) Version/26.0.1 Safari/605.1.15" version="28.2.7">
  <diagram name="Страница — 1" id="CW9qRDhQOmtiHrpZZjMh">
    <mxGraphModel dx="1013" dy="678" grid="1" gridSize="10" guides="1" tooltips="1" connect="1" arrows="1" fold="1" page="1" pageScale="1" pageWidth="827" pageHeight="1169" math="0" shadow="0">
      <root>
        <mxCell id="0" />
        <mxCell id="1" parent="0" />
        <mxCell id="UpGnipHQFmUn0fFgcWBP-20" value="1..*" style="text;html=1;whiteSpace=wrap;strokeColor=none;fillColor=none;align=center;verticalAlign=middle;rounded=0;" parent="1" vertex="1">
          <mxGeometry x="220" y="314" width="60" height="30" as="geometry" />
        </mxCell>
        <mxCell id="67OVz78ZhZENa-oEIogz-9" style="edgeStyle=orthogonalEdgeStyle;rounded=0;orthogonalLoop=1;jettySize=auto;html=1;" edge="1" parent="1" source="67OVz78ZhZENa-oEIogz-1" target="67OVz78ZhZENa-oEIogz-10">
          <mxGeometry relative="1" as="geometry">
            <mxPoint x="210" y="340" as="targetPoint" />
          </mxGeometry>
        </mxCell>
        <mxCell id="67OVz78ZhZENa-oEIogz-1" value="Client" style="swimlane;fontStyle=1;align=center;verticalAlign=top;childLayout=stackLayout;horizontal=1;startSize=26;horizontalStack=0;resizeParent=1;resizeParentMax=0;resizeLast=0;collapsible=1;marginBottom=0;whiteSpace=wrap;html=1;" vertex="1" parent="1">
          <mxGeometry x="130" y="130" width="160" height="170" as="geometry" />
        </mxCell>
        <mxCell id="67OVz78ZhZENa-oEIogz-2" value="- clientId: int&lt;div&gt;- fullname: String&lt;/div&gt;&lt;div&gt;- email: String&lt;/div&gt;&lt;div&gt;- accounts: List&amp;lt;BankAccount&amp;gt;&lt;/div&gt;" style="text;strokeColor=none;fillColor=none;align=left;verticalAlign=top;spacingLeft=4;spacingRight=4;overflow=hidden;rotatable=0;points=[[0,0.5],[1,0.5]];portConstraint=eastwest;whiteSpace=wrap;html=1;" vertex="1" parent="67OVz78ZhZENa-oEIogz-1">
          <mxGeometry y="26" width="160" height="74" as="geometry" />
        </mxCell>
        <mxCell id="67OVz78ZhZENa-oEIogz-3" value="" style="line;strokeWidth=1;fillColor=none;align=left;verticalAlign=middle;spacingTop=-1;spacingLeft=3;spacingRight=3;rotatable=0;labelPosition=right;points=[];portConstraint=eastwest;strokeColor=inherit;" vertex="1" parent="67OVz78ZhZENa-oEIogz-1">
          <mxGeometry y="100" width="160" height="8" as="geometry" />
        </mxCell>
        <mxCell id="67OVz78ZhZENa-oEIogz-4" value="+ addAccount()&lt;div&gt;+ getTotalBalance()&lt;/div&gt;" style="text;strokeColor=none;fillColor=none;align=left;verticalAlign=top;spacingLeft=4;spacingRight=4;overflow=hidden;rotatable=0;points=[[0,0.5],[1,0.5]];portConstraint=eastwest;whiteSpace=wrap;html=1;" vertex="1" parent="67OVz78ZhZENa-oEIogz-1">
          <mxGeometry y="108" width="160" height="62" as="geometry" />
        </mxCell>
        <mxCell id="67OVz78ZhZENa-oEIogz-10" value="BankAccount" style="swimlane;fontStyle=1;align=center;verticalAlign=top;childLayout=stackLayout;horizontal=1;startSize=26;horizontalStack=0;resizeParent=1;resizeParentMax=0;resizeLast=0;collapsible=1;marginBottom=0;whiteSpace=wrap;html=1;" vertex="1" parent="1">
          <mxGeometry x="140" y="363" width="140" height="222" as="geometry" />
        </mxCell>
        <mxCell id="67OVz78ZhZENa-oEIogz-11" value="- accountNumber: String&lt;div&gt;- balance: double&lt;/div&gt;&lt;div&gt;- transactions: List&amp;lt;Transaction&amp;gt;&lt;/div&gt;" style="text;strokeColor=none;fillColor=none;align=left;verticalAlign=top;spacingLeft=4;spacingRight=4;overflow=hidden;rotatable=0;points=[[0,0.5],[1,0.5]];portConstraint=eastwest;whiteSpace=wrap;html=1;" vertex="1" parent="67OVz78ZhZENa-oEIogz-10">
          <mxGeometry y="26" width="140" height="84" as="geometry" />
        </mxCell>
        <mxCell id="67OVz78ZhZENa-oEIogz-12" value="" style="line;strokeWidth=1;fillColor=none;align=left;verticalAlign=middle;spacingTop=-1;spacingLeft=3;spacingRight=3;rotatable=0;labelPosition=right;points=[];portConstraint=eastwest;strokeColor=inherit;" vertex="1" parent="67OVz78ZhZENa-oEIogz-10">
          <mxGeometry y="110" width="140" height="30" as="geometry" />
        </mxCell>
        <mxCell id="67OVz78ZhZENa-oEIogz-13" value="+ deposit()&lt;div&gt;+ withdraw()&lt;/div&gt;&lt;div&gt;+ addTransaction()&lt;/div&gt;" style="text;strokeColor=none;fillColor=none;align=left;verticalAlign=top;spacingLeft=4;spacingRight=4;overflow=hidden;rotatable=0;points=[[0,0.5],[1,0.5]];portConstraint=eastwest;whiteSpace=wrap;html=1;" vertex="1" parent="67OVz78ZhZENa-oEIogz-10">
          <mxGeometry y="140" width="140" height="82" as="geometry" />
        </mxCell>
        <mxCell id="67OVz78ZhZENa-oEIogz-15" value="SavingAccount" style="swimlane;fontStyle=1;align=center;verticalAlign=top;childLayout=stackLayout;horizontal=1;startSize=26;horizontalStack=0;resizeParent=1;resizeParentMax=0;resizeLast=0;collapsible=1;marginBottom=0;whiteSpace=wrap;html=1;" vertex="1" parent="1">
          <mxGeometry x="30" y="630" width="160" height="86" as="geometry" />
        </mxCell>
        <mxCell id="67OVz78ZhZENa-oEIogz-16" value="- interestRate: double" style="text;strokeColor=none;fillColor=none;align=left;verticalAlign=top;spacingLeft=4;spacingRight=4;overflow=hidden;rotatable=0;points=[[0,0.5],[1,0.5]];portConstraint=eastwest;whiteSpace=wrap;html=1;" vertex="1" parent="67OVz78ZhZENa-oEIogz-15">
          <mxGeometry y="26" width="160" height="26" as="geometry" />
        </mxCell>
        <mxCell id="67OVz78ZhZENa-oEIogz-17" value="" style="line;strokeWidth=1;fillColor=none;align=left;verticalAlign=middle;spacingTop=-1;spacingLeft=3;spacingRight=3;rotatable=0;labelPosition=right;points=[];portConstraint=eastwest;strokeColor=inherit;" vertex="1" parent="67OVz78ZhZENa-oEIogz-15">
          <mxGeometry y="52" width="160" height="8" as="geometry" />
        </mxCell>
        <mxCell id="67OVz78ZhZENa-oEIogz-18" value="+ applyInterest()" style="text;strokeColor=none;fillColor=none;align=left;verticalAlign=top;spacingLeft=4;spacingRight=4;overflow=hidden;rotatable=0;points=[[0,0.5],[1,0.5]];portConstraint=eastwest;whiteSpace=wrap;html=1;" vertex="1" parent="67OVz78ZhZENa-oEIogz-15">
          <mxGeometry y="60" width="160" height="26" as="geometry" />
        </mxCell>
        <mxCell id="67OVz78ZhZENa-oEIogz-19" value="" style="endArrow=classic;html=1;rounded=0;exitX=0.489;exitY=0.997;exitDx=0;exitDy=0;exitPerimeter=0;entryX=0.5;entryY=0;entryDx=0;entryDy=0;" edge="1" parent="1" source="67OVz78ZhZENa-oEIogz-13" target="67OVz78ZhZENa-oEIogz-15">
          <mxGeometry width="50" height="50" relative="1" as="geometry">
            <mxPoint x="250" y="550" as="sourcePoint" />
            <mxPoint x="300" y="500" as="targetPoint" />
          </mxGeometry>
        </mxCell>
        <mxCell id="67OVz78ZhZENa-oEIogz-20" value="CreditAccount" style="swimlane;fontStyle=1;align=center;verticalAlign=top;childLayout=stackLayout;horizontal=1;startSize=26;horizontalStack=0;resizeParent=1;resizeParentMax=0;resizeLast=0;collapsible=1;marginBottom=0;whiteSpace=wrap;html=1;" vertex="1" parent="1">
          <mxGeometry x="200" y="700" width="160" height="100" as="geometry" />
        </mxCell>
        <mxCell id="67OVz78ZhZENa-oEIogz-21" value="- creditLimit: double" style="text;strokeColor=none;fillColor=none;align=left;verticalAlign=top;spacingLeft=4;spacingRight=4;overflow=hidden;rotatable=0;points=[[0,0.5],[1,0.5]];portConstraint=eastwest;whiteSpace=wrap;html=1;" vertex="1" parent="67OVz78ZhZENa-oEIogz-20">
          <mxGeometry y="26" width="160" height="26" as="geometry" />
        </mxCell>
        <mxCell id="67OVz78ZhZENa-oEIogz-22" value="" style="line;strokeWidth=1;fillColor=none;align=left;verticalAlign=middle;spacingTop=-1;spacingLeft=3;spacingRight=3;rotatable=0;labelPosition=right;points=[];portConstraint=eastwest;strokeColor=inherit;" vertex="1" parent="67OVz78ZhZENa-oEIogz-20">
          <mxGeometry y="52" width="160" height="8" as="geometry" />
        </mxCell>
        <mxCell id="67OVz78ZhZENa-oEIogz-23" value="+ charge()&lt;div&gt;+payDebt()&lt;/div&gt;" style="text;strokeColor=none;fillColor=none;align=left;verticalAlign=top;spacingLeft=4;spacingRight=4;overflow=hidden;rotatable=0;points=[[0,0.5],[1,0.5]];portConstraint=eastwest;whiteSpace=wrap;html=1;" vertex="1" parent="67OVz78ZhZENa-oEIogz-20">
          <mxGeometry y="60" width="160" height="40" as="geometry" />
        </mxCell>
        <mxCell id="67OVz78ZhZENa-oEIogz-24" value="" style="endArrow=classic;html=1;rounded=0;exitX=0.493;exitY=1.003;exitDx=0;exitDy=0;exitPerimeter=0;entryX=0.5;entryY=0;entryDx=0;entryDy=0;" edge="1" parent="1" source="67OVz78ZhZENa-oEIogz-13" target="67OVz78ZhZENa-oEIogz-20">
          <mxGeometry width="50" height="50" relative="1" as="geometry">
            <mxPoint x="250" y="610" as="sourcePoint" />
            <mxPoint x="300" y="560" as="targetPoint" />
          </mxGeometry>
        </mxCell>
        <mxCell id="67OVz78ZhZENa-oEIogz-25" value="1..*" style="text;html=1;whiteSpace=wrap;strokeColor=none;fillColor=none;align=center;verticalAlign=middle;rounded=0;" vertex="1" parent="1">
          <mxGeometry x="330" y="600" width="60" height="30" as="geometry" />
        </mxCell>
        <mxCell id="67OVz78ZhZENa-oEIogz-26" value="Transaction" style="swimlane;fontStyle=1;align=center;verticalAlign=top;childLayout=stackLayout;horizontal=1;startSize=26;horizontalStack=0;resizeParent=1;resizeParentMax=0;resizeLast=0;collapsible=1;marginBottom=0;whiteSpace=wrap;html=1;" vertex="1" parent="1">
          <mxGeometry x="380" y="666" width="170" height="168" as="geometry" />
        </mxCell>
        <mxCell id="67OVz78ZhZENa-oEIogz-27" value="- transactionId: int&lt;div&gt;- date: Date&lt;/div&gt;&lt;div&gt;- amount: double&amp;nbsp;&lt;/div&gt;&lt;div&gt;- type: String&lt;/div&gt;" style="text;strokeColor=none;fillColor=none;align=left;verticalAlign=top;spacingLeft=4;spacingRight=4;overflow=hidden;rotatable=0;points=[[0,0.5],[1,0.5]];portConstraint=eastwest;whiteSpace=wrap;html=1;" vertex="1" parent="67OVz78ZhZENa-oEIogz-26">
          <mxGeometry y="26" width="170" height="74" as="geometry" />
        </mxCell>
        <mxCell id="67OVz78ZhZENa-oEIogz-28" value="" style="line;strokeWidth=1;fillColor=none;align=left;verticalAlign=middle;spacingTop=-1;spacingLeft=3;spacingRight=3;rotatable=0;labelPosition=right;points=[];portConstraint=eastwest;strokeColor=inherit;" vertex="1" parent="67OVz78ZhZENa-oEIogz-26">
          <mxGeometry y="100" width="170" height="18" as="geometry" />
        </mxCell>
        <mxCell id="67OVz78ZhZENa-oEIogz-29" value="&amp;nbsp;+ printDetails()" style="text;strokeColor=none;fillColor=none;align=left;verticalAlign=top;spacingLeft=4;spacingRight=4;overflow=hidden;rotatable=0;points=[[0,0.5],[1,0.5]];portConstraint=eastwest;whiteSpace=wrap;html=1;" vertex="1" parent="67OVz78ZhZENa-oEIogz-26">
          <mxGeometry y="118" width="170" height="50" as="geometry" />
        </mxCell>
        <mxCell id="67OVz78ZhZENa-oEIogz-30" value="" style="endArrow=classic;html=1;rounded=0;exitX=0.505;exitY=0.99;exitDx=0;exitDy=0;exitPerimeter=0;entryX=0.529;entryY=0;entryDx=0;entryDy=0;entryPerimeter=0;" edge="1" parent="1">
          <mxGeometry width="50" height="50" relative="1" as="geometry">
            <mxPoint x="210" y="585" as="sourcePoint" />
            <mxPoint x="469.22999999999996" y="666.82" as="targetPoint" />
          </mxGeometry>
        </mxCell>
      </root>
    </mxGraphModel>
  </diagram>
</mxfile>
